<svg xmlns="http://www.w3.org/2000/svg" viewBox="0 0 24 24" width="24" height="24">
  <path d="M7 18c-1.104 0-2 .896-2 2s.896 2 2 2 2-.896 2-2-.896-2-2-2zm10 0c-1.104 0-2 .896-2 2s.896 2 2 2 2-.896 2-2-.896-2-2-2zm-15-16h2l3.6 7.59-1.35 2.45c-.16.29-.25.62-.25.96 0 1.1.9 2 2 2h12v-2h-11.42c-.14 0-.25-.11-.25-.25l.03-.12.9-1.63h7.68c.75 0 1.42-.41 1.76-1.03l3.58-6.49-.88-1.55-1.54.88-3.47 6.27h-7.45l-.66-1.22 7.07-3.87 1.44 1.44-8.93 4.89 1.82 3.28h9.8c.79 0 1.52-.49 1.84-1.21l2.96-5.31-2.08-1.18-2.79 5-2.94-1.68 3.78-6.82h-10.34l-.6-1.14-3.41-6.43h-4.38v2z"/>
</svg>